<svg width="48" height="48" viewBox="0 0 48 48" fill="none" xmlns="http://www.w3.org/2000/svg">
<rect width="48" height="48" fill="black"/>
<path d="M11.625 39.4091C10.6364 39.4091 9.78835 39.0639 9.08097 38.3736C8.3821 37.6747 8.03693 36.8267 8.04545 35.8295C8.03693 34.858 8.3821 34.027 9.08097 33.3366C9.78835 32.6463 10.6364 32.3011 11.625 32.3011C12.5625 32.3011 13.3892 32.6463 14.1051 33.3366C14.8295 34.027 15.196 34.858 15.2045 35.8295C15.196 36.4943 15.0213 37.0994 14.6804 37.6449C14.348 38.1818 13.9134 38.6122 13.3764 38.9361C12.8395 39.2514 12.2557 39.4091 11.625 39.4091ZM18.9375 39V12.8182H30.2386C32.1818 12.8182 33.8821 13.1719 35.3395 13.8793C36.7969 14.5866 37.9304 15.6051 38.7401 16.9347C39.5497 18.2642 39.9545 19.858 39.9545 21.7159C39.9545 23.5909 39.5369 25.1719 38.7017 26.4588C37.875 27.7457 36.7116 28.7173 35.2116 29.3736C33.7202 30.0298 31.9773 30.358 29.983 30.358H23.233V24.8352H28.5511C29.3864 24.8352 30.098 24.733 30.6861 24.5284C31.2827 24.3153 31.7386 23.9787 32.054 23.5185C32.3778 23.0582 32.5398 22.4574 32.5398 21.7159C32.5398 20.9659 32.3778 20.3565 32.054 19.8878C31.7386 19.4105 31.2827 19.0611 30.6861 18.8395C30.098 18.6094 29.3864 18.4943 28.5511 18.4943H26.0455V39H18.9375ZM34.2784 26.983L40.8239 39H33.1023L26.7102 26.983H34.2784Z" fill="white"/>
</svg>
