<svg width="250" height="80" viewBox="0 0 250 80" fill="none" xmlns="http://www.w3.org/2000/svg">
<rect width="250" height="80" fill="black"/>
<path d="M32.25 55.4545C31.1515 55.4545 30.2093 55.071 29.4233 54.304C28.6468 53.5275 28.2633 52.5852 28.2727 51.4773C28.2633 50.3977 28.6468 49.4744 29.4233 48.7074C30.2093 47.9403 31.1515 47.5568 32.25 47.5568C33.2917 47.5568 34.2102 47.9403 35.0057 48.7074C35.8106 49.4744 36.2178 50.3977 36.2273 51.4773C36.2178 52.2159 36.0237 52.8883 35.6449 53.4943C35.2756 54.0909 34.7926 54.5691 34.196 54.929C33.5994 55.2794 32.9508 55.4545 32.25 55.4545ZM40.375 55V25.9091H52.9318C55.0909 25.9091 56.9801 26.3021 58.5994 27.0881C60.2188 27.8741 61.4782 29.0057 62.3778 30.483C63.2775 31.9602 63.7273 33.7311 63.7273 35.7955C63.7273 37.8788 63.2633 39.6354 62.3352 41.0653C61.4167 42.4953 60.1241 43.5748 58.4574 44.304C56.8002 45.0331 54.8636 45.3977 52.6477 45.3977H45.1477V39.2614H51.0568C51.9848 39.2614 52.7756 39.1477 53.429 38.9205C54.0919 38.6837 54.5985 38.3097 54.9489 37.7983C55.3087 37.2869 55.4886 36.6193 55.4886 35.7955C55.4886 34.9621 55.3087 34.285 54.9489 33.7642C54.5985 33.2339 54.0919 32.8456 53.429 32.5994C52.7756 32.3437 51.9848 32.2159 51.0568 32.2159H48.2727V55H40.375ZM57.4205 41.6477L64.6932 55H56.1136L49.0114 41.6477H57.4205ZM67.0938 55V25.9091H88.0597V32.2727H74.9915V37.2727H86.9801V43.6364H74.9915V48.6364H88.0028V55H67.0938ZM107.658 35C107.583 34.053 107.228 33.3144 106.593 32.7841C105.968 32.2538 105.016 31.9886 103.738 31.9886C102.924 31.9886 102.256 32.0881 101.735 32.2869C101.224 32.4763 100.845 32.7367 100.599 33.0682C100.353 33.3996 100.225 33.7784 100.215 34.2045C100.196 34.5549 100.258 34.8722 100.4 35.1562C100.551 35.4309 100.788 35.6818 101.11 35.9091C101.432 36.1269 101.844 36.3258 102.346 36.5057C102.848 36.6856 103.444 36.8466 104.136 36.9886L106.522 37.5C108.132 37.8409 109.51 38.2907 110.656 38.8494C111.801 39.4081 112.739 40.0663 113.468 40.8239C114.197 41.572 114.732 42.4148 115.073 43.3523C115.424 44.2898 115.603 45.3125 115.613 46.4205C115.603 48.3333 115.125 49.9527 114.178 51.2784C113.231 52.6042 111.877 53.6127 110.116 54.304C108.364 54.9953 106.257 55.3409 103.795 55.3409C101.266 55.3409 99.0599 54.9669 97.1754 54.2188C95.3004 53.4706 93.8421 52.3201 92.8004 50.767C91.7682 49.2045 91.2474 47.2064 91.2379 44.7727H98.7379C98.7853 45.6629 99.0078 46.411 99.4055 47.017C99.8033 47.6231 100.362 48.0824 101.082 48.3949C101.811 48.7074 102.677 48.8636 103.681 48.8636C104.524 48.8636 105.229 48.7595 105.798 48.5511C106.366 48.3428 106.797 48.054 107.09 47.6847C107.384 47.3153 107.535 46.8939 107.545 46.4205C107.535 45.9754 107.388 45.5871 107.104 45.2557C106.83 44.9148 106.375 44.6117 105.741 44.3466C105.106 44.072 104.249 43.8163 103.17 43.5795L100.272 42.9545C97.6963 42.3958 95.665 41.4631 94.1783 40.1562C92.701 38.84 91.9671 37.0455 91.9766 34.7727C91.9671 32.9261 92.4595 31.3116 93.4538 29.929C94.4576 28.5369 95.8449 27.4527 97.6158 26.6761C99.3961 25.8996 101.437 25.5114 103.738 25.5114C106.086 25.5114 108.118 25.9044 109.832 26.6903C111.546 27.4763 112.867 28.5843 113.795 30.0142C114.732 31.4347 115.206 33.0966 115.215 35H107.658ZM146.799 40.4545C146.799 43.6932 146.169 46.4252 144.91 48.6506C143.65 50.8665 141.951 52.5473 139.81 53.6932C137.67 54.8295 135.284 55.3977 132.651 55.3977C130 55.3977 127.604 54.8248 125.464 53.679C123.333 52.5237 121.638 50.8381 120.379 48.6222C119.129 46.3968 118.504 43.6742 118.504 40.4545C118.504 37.2159 119.129 34.4886 120.379 32.2727C121.638 30.0473 123.333 28.3665 125.464 27.2301C127.604 26.0843 130 25.5114 132.651 25.5114C135.284 25.5114 137.67 26.0843 139.81 27.2301C141.951 28.3665 143.65 30.0473 144.91 32.2727C146.169 34.4886 146.799 37.2159 146.799 40.4545ZM138.674 40.4545C138.674 38.7121 138.442 37.2443 137.978 36.0511C137.523 34.8485 136.846 33.9394 135.947 33.3239C135.057 32.6989 133.958 32.3864 132.651 32.3864C131.344 32.3864 130.241 32.6989 129.342 33.3239C128.451 33.9394 127.774 34.8485 127.31 36.0511C126.856 37.2443 126.629 38.7121 126.629 40.4545C126.629 42.197 126.856 43.6695 127.31 44.8722C127.774 46.0653 128.451 46.9744 129.342 47.5994C130.241 48.215 131.344 48.5227 132.651 48.5227C133.958 48.5227 135.057 48.215 135.947 47.5994C136.846 46.9744 137.523 46.0653 137.978 44.8722C138.442 43.6695 138.674 42.197 138.674 40.4545ZM150.453 55V25.9091H158.351V48.6364H170.112V55H150.453ZM177.861 25.9091L183.827 46.4205H184.054L190.02 25.9091H198.94L189.338 55H178.543L168.94 25.9091H177.861ZM201.742 55V25.9091H222.708V32.2727H209.64V37.2727H221.629V43.6364H209.64V48.6364H222.651V55H201.742Z" fill="white"/>
</svg>
